<svg xmlns="http://www.w3.org/2000/svg" xmlns:svg="http://www.w3.org/2000/svg" id="svg2" width="48" height="48" version="1.1"><metadata id="metadata7"/><g id="layer1" transform="translate(0,-1004.3622)"><g id="g4977" transform="matrix(0.07541706,0,0,0.16025455,-4.6372846,936.16161)"><g id="g3367" transform="translate(-43.780524,56.485281)"><path id="path3369" d="m 416.92756,512.26922 -47.85512,-12.82272 47.85512,47.8551 z" style="fill:#7c9fb8;fill-opacity:1;stroke:#000;stroke-width:2.14487338;stroke-linecap:butt;stroke-linejoin:round;stroke-miterlimit:4;stroke-opacity:1;stroke-dasharray:none"/><path id="path3371" d="m 416.91417,511.99494 -47.82835,-12.81555 47.82835,-12.81556 z" style="fill:none;stroke:#000;stroke-width:2.1716423px;stroke-linecap:butt;stroke-linejoin:round;stroke-opacity:1"/><path style="fill:#507793;fill-opacity:1;stroke:#000;stroke-width:2.14487338;stroke-linecap:butt;stroke-linejoin:round;stroke-miterlimit:4;stroke-opacity:1;stroke-dasharray:none" id="path3373" d="m 417.07244,512.26922 47.85512,-12.82272 -47.85512,47.8551 z"/><path style="fill:none;stroke:#000;stroke-width:2.1716423px;stroke-linecap:butt;stroke-linejoin:round;stroke-opacity:1" id="path3375" d="m 417.08583,511.99494 47.82835,-12.81555 -47.82835,-12.81556 z"/></g><path id="path3377" d="m 373.46616,554.10755 c 478.08652,-34.719 41.88906,-190.30068 0,0 -42.0573,191.06448 -476.17541,34.58021 0,0 z" style="fill:none;stroke:#f2a700;stroke-width:2.5;stroke-linecap:butt;stroke-linejoin:miter;stroke-miterlimit:4;stroke-opacity:1;stroke-dasharray:none"/><path style="fill:none;stroke:#f2a700;stroke-width:2.5;stroke-linecap:butt;stroke-linejoin:miter;stroke-miterlimit:4;stroke-opacity:1;stroke-dasharray:none" id="path3379" d="m 373.32119,554.22106 c 268.94876,-158.18303 -312.77181,-148.91561 0,0 314.027,149.51333 -267.87363,157.55069 0,0 z"/><path id="path3381" d="m 373.50622,554.37316 c -266.49463,-181.17312 -490.21515,92.70221 0,0 478.11173,-90.41339 319.91613,217.49107 0,0 z" style="fill:none;stroke:#f2a700;stroke-width:2.5;stroke-linecap:butt;stroke-linejoin:miter;stroke-miterlimit:4;stroke-opacity:1;stroke-dasharray:none"/><g id="g3395" transform="translate(-43.780524,72.485281)"><path id="path3397" d="m 416.77682,380.94247 -47.55364,82.3653 47.55364,12.74198 z" style="fill:#96b2c6;fill-opacity:1;stroke:#000;stroke-width:2.44636226px;stroke-linecap:butt;stroke-linejoin:round;stroke-opacity:1"/><path style="fill:#628caa;fill-opacity:1;stroke:#000;stroke-width:2.44636226px;stroke-linecap:butt;stroke-linejoin:round;stroke-opacity:1" id="path3399" d="m 417.22318,380.94247 47.55364,82.3653 -47.55364,12.74198 z"/></g><g id="g4857" transform="translate(27,70.5)"><path style="fill:#507793;fill-opacity:1;stroke:none" id="path3383" d="m -4325.9157,1978.7572 c 0,53.3188 -43.2235,96.5423 -96.5423,96.5423 -53.3188,0 -96.5423,-43.2235 -96.5423,-96.5423 0,-53.3188 43.2235,-96.5423 96.5423,-96.5423 53.3188,0 96.5423,43.2235 96.5423,96.5423 z" transform="matrix(0.0937797,-0.04230682,0.05113013,0.08196833,590.24895,94.628443)"/><text id="text3401" x="317.151" y="449.666" transform="matrix(1,0,-0.10510383,1,0,0)" xml:space="preserve" style="font-size:20px;font-style:normal;font-weight:400;line-height:125%;letter-spacing:0;word-spacing:0;fill:#000;fill-opacity:1;stroke:none;font-family:Sans"><tspan style="font-size:20px;font-style:italic;font-variant:normal;font-weight:400;font-stretch:normal;font-family:Ume P Gothic;-inkscape-font-specification:Ume P Gothic Italic" id="tspan3403" x="317.151" y="449.666">e</tspan></text></g><g id="g4851" transform="translate(2,14)"><path style="fill:#507793;fill-opacity:1;stroke:none" id="path3389" d="m -4325.9157,1978.7572 c 0,53.3188 -43.2235,96.5423 -96.5423,96.5423 -53.3188,0 -96.5423,-43.2235 -96.5423,-96.5423 0,-53.3188 43.2235,-96.5423 96.5423,-96.5423 53.3188,0 96.5423,43.2235 96.5423,96.5423 z" transform="matrix(0.0937797,-0.04230682,0.05113013,0.08196833,757.82217,108.16467)"/><text style="font-size:20px;font-style:normal;font-weight:400;line-height:125%;letter-spacing:0;word-spacing:0;fill:#000;fill-opacity:1;stroke:none;font-family:Sans" id="text3407" x="486.146" y="463.202" transform="matrix(1,0,-0.10510383,1,0,0)" xml:space="preserve"><tspan id="tspan3409" x="486.146" y="463.202" style="font-size:20px;font-style:italic;font-variant:normal;font-weight:400;font-stretch:normal;font-family:Ume P Gothic;-inkscape-font-specification:Ume P Gothic Italic">e</tspan></text></g><g id="g4863" transform="translate(-24,-64)"><path id="path3387" d="m -4325.9157,1978.7572 c 0,53.3188 -43.2235,96.5423 -96.5423,96.5423 -53.3188,0 -96.5423,-43.2235 -96.5423,-96.5423 0,-53.3188 43.2235,-96.5423 96.5423,-96.5423 53.3188,0 96.5423,43.2235 96.5423,96.5423 z" transform="matrix(0.0937797,-0.04230682,0.05113013,0.08196833,780.87217,311.29491)" style="fill:#507793;fill-opacity:1;stroke:none"/><text id="text3413" x="530.546" y="666.333" transform="matrix(1,0,-0.10510383,1,0,0)" xml:space="preserve" style="font-size:20px;font-style:normal;font-weight:400;line-height:125%;letter-spacing:0;word-spacing:0;fill:#000;fill-opacity:1;stroke:none;font-family:Sans"><tspan style="font-size:20px;font-style:italic;font-variant:normal;font-weight:400;font-stretch:normal;font-family:Ume P Gothic;-inkscape-font-specification:Ume P Gothic Italic" id="tspan3415" x="530.546" y="666.333">e</tspan></text></g><g id="g4869" transform="translate(2,-14)"><path style="fill:#507793;fill-opacity:1;stroke:none" id="path3385" d="m -4325.9157,1978.7572 c 0,53.3188 -43.2235,96.5423 -96.5423,96.5423 -53.3188,0 -96.5423,-43.2235 -96.5423,-96.5423 0,-53.3188 43.2235,-96.5423 96.5423,-96.5423 53.3188,0 96.5423,43.2235 96.5423,96.5423 z" transform="matrix(0.0937797,-0.04230682,0.05113013,0.08196833,614.213,298.32571)"/><text style="font-size:20px;font-style:normal;font-weight:400;line-height:125%;letter-spacing:0;word-spacing:0;fill:#000;fill-opacity:1;stroke:none;font-family:Sans" id="text3419" x="362.524" y="653.363" transform="matrix(1,0,-0.10510383,1,0,0)" xml:space="preserve"><tspan id="tspan3421" x="362.524" y="653.363" style="font-size:20px;font-style:italic;font-variant:normal;font-weight:400;font-stretch:normal;font-family:Ume P Gothic;-inkscape-font-specification:Ume P Gothic Italic">e</tspan></text></g><path id="path3427" d="m -4326.1756,1972.0668 c 3.9096,50.2561 -36.0281,93.9921 -89.2034,97.6871 -53.1753,3.695 -99.4518,-34.0502 -103.3614,-84.3063 -3.9096,-50.2561 36.0281,-93.9921 89.2034,-97.6871 10.1891,-0.708 20.4326,0.1171 30.3481,2.4443" transform="matrix(-0.03266523,8.1893737e-5,-0.00637162,-0.03673046,167.93296,522.01545)" style="fill:none;stroke:#000;stroke-width:43.29530334;stroke-linecap:round;stroke-miterlimit:4;stroke-opacity:1;stroke-dasharray:none"/><path style="fill:none;stroke:#e30000;stroke-width:43.84312057;stroke-linecap:round;stroke-linejoin:bevel;stroke-miterlimit:4;stroke-opacity:1;stroke-dasharray:none" id="path3433" d="m -4332.0658,2013.4672 c -18.726,51.1053 -74.3765,76.9941 -124.2987,57.8243 -49.9223,-19.1698 -75.2118,-76.139 -56.4858,-127.2443 18.7261,-51.1053 74.3766,-76.9941 124.2988,-57.8243 17.2039,6.6062 32.209,18.1011 43.2525,33.1344" transform="matrix(0.020345,0.022491,-0.02060033,0.03476039,544.40642,476.98412)"/><path style="fill:none;stroke:#e30000;stroke-width:40.85173798;stroke-linecap:round;stroke-miterlimit:4;stroke-opacity:1;stroke-dasharray:none" id="path3437" d="m -4327.1178,1963.5701 c 8.3876,52.655 -27.4981,102.1398 -80.1531,110.5274 -52.655,8.3876 -102.1398,-27.4982 -110.5274,-80.1532 -8.3876,-52.655 27.4982,-102.1398 80.1532,-110.5274 19.3524,-3.0827 39.1848,-0.2031 56.8614,8.256" transform="matrix(-0.03405913,0.00998475,-0.01856955,-0.03414091,171.43757,570.24789)"/><text style="font-size:64.56291962px;font-style:normal;font-weight:400;line-height:125%;letter-spacing:0;word-spacing:0;fill:#000;fill-opacity:1;stroke:none;font-family:Sans" id="text3453" x="380.965" y="715.352" xml:space="preserve"><tspan id="tspan3455" x="380.965" y="715.352" style="font-style:normal;font-variant:normal;font-weight:400;font-stretch:normal;font-family:Ume Gothic;-inkscape-font-specification:Ume Gothic">.network</tspan></text><g id="g3457" transform="translate(-39.780524,89.48528)"><text id="text3459" x="137.287" y="625.867" xml:space="preserve" style="font-size:31.39909554px;font-style:normal;font-weight:400;line-height:125%;letter-spacing:0;word-spacing:0;fill:#000;fill-opacity:1;stroke:none;font-family:Sans"><tspan style="font-size:113.03675079px;font-style:normal;font-variant:normal;font-weight:400;font-stretch:normal;font-family:Ume P Gothic;-inkscape-font-specification:Ume P Gothic" id="tspan3461" x="137.287" y="625.867">raid</tspan></text><text style="font-size:31.39909554px;font-style:normal;font-weight:400;line-height:125%;letter-spacing:0;word-spacing:0;fill:#000;fill-opacity:1;stroke:none;font-family:Sans" id="text3465" x="299.633" y="625.867" xml:space="preserve"><tspan id="tspan3467" x="299.633" y="625.867" style="font-size:113.03675079px;font-style:italic;font-variant:normal;font-weight:400;font-stretch:normal;font-family:Ume P Gothic;-inkscape-font-specification:Ume P Gothic Italic">e</tspan></text><text style="font-size:31.39909554px;font-style:normal;font-weight:400;line-height:125%;letter-spacing:0;word-spacing:0;fill:#000;fill-opacity:1;stroke:none;font-family:Sans" id="text3471" x="354.073" y="625.867" xml:space="preserve"><tspan id="tspan3473" x="354.073" y="625.867" style="font-size:113.03675079px;font-style:normal;font-variant:normal;font-weight:400;font-stretch:normal;font-family:Ume P Gothic;-inkscape-font-specification:Ume P Gothic">n</tspan></text></g><path id="path3477" d="m -4329.2353,2003.8557 c -13.8615,51.4855 -66.8357,81.9857 -118.3212,68.1242 -51.4855,-13.8614 -81.9857,-66.8356 -68.1243,-118.3211 13.8615,-51.4855 66.8357,-81.9858 118.3212,-68.1243 21.2324,5.7164 39.8772,18.5095 52.8503,36.263" transform="matrix(0.02320178,0.01471747,-0.01346473,0.04611727,309.7935,547.24372)" style="fill:none;stroke:#e30000;stroke-width:42.12137985;stroke-linecap:round;stroke-miterlimit:4;stroke-opacity:1;stroke-dasharray:none"/><path style="fill:none;stroke:#e30000;stroke-width:62.80171585;stroke-linecap:round;stroke-miterlimit:4;stroke-opacity:1;stroke-dasharray:none" id="path3479" d="m -4326.5039,1968.1165 c 5.8767,52.994 -32.3194,100.7181 -85.3134,106.5948 -52.994,5.8767 -100.7181,-32.3194 -106.5948,-85.3134 -5.8767,-52.994 32.3194,-100.7181 85.3134,-106.5948 16.8608,-1.8697 33.9166,0.7363 49.4498,7.5558" transform="matrix(0.01052248,0.02371703,-0.00821405,0.03570127,219.05303,527.05425)"/><path id="path4845" d="m -4332.3356,2014.1949 c -19.1186,50.9527 -74.9665,76.392 -124.7397,56.8204 -49.7733,-19.5717 -74.6238,-76.743 -55.5051,-127.6958 19.1186,-50.9527 74.9665,-76.392 124.7397,-56.8204 14.2079,5.5868 26.9242,14.5333 37.1113,26.1093" transform="matrix(0.01345027,3.221109e-4,-0.00247597,0.04037048,433.7809,361.37104)" style="fill:none;stroke:#e30000;stroke-width:64.32430267;stroke-linecap:round;stroke-linejoin:bevel;stroke-miterlimit:4;stroke-opacity:1;stroke-dasharray:none"/><path style="fill:none;stroke:#000;stroke-width:48.7424202;stroke-linecap:round;stroke-miterlimit:4;stroke-opacity:1;stroke-dasharray:none" id="path4847" d="m -4326.1979,1971.7862 c 4.0736,50.2444 -35.7212,94.0966 -88.8842,97.9466 -53.163,3.85 -99.5624,-33.7601 -103.636,-84.0046 -4.0736,-50.2444 35.7212,-94.0966 88.8841,-97.9466 17.2975,-1.2527 34.6326,1.9229 50.1823,9.1927" transform="matrix(0.02225206,0.00204013,0.01611653,-0.04108205,498.3341,544.4668)"/><g id="g4875" transform="translate(40,-122)"><path style="fill:#507793;fill-opacity:1;stroke:none" id="path4877" d="m -4325.9157,1978.7572 c 0,53.3188 -43.2235,96.5423 -96.5423,96.5423 -53.3188,0 -96.5423,-43.2235 -96.5423,-96.5423 0,-53.3188 43.2235,-96.5423 96.5423,-96.5423 53.3188,0 96.5423,43.2235 96.5423,96.5423 z" transform="matrix(0.0937797,-0.04230682,0.05113013,0.08196833,780.87217,311.29491)"/><text style="font-size:20px;font-style:normal;font-weight:400;line-height:125%;letter-spacing:0;word-spacing:0;fill:#000;fill-opacity:1;stroke:none;font-family:Sans" id="text4879" x="530.546" y="666.333" transform="matrix(1,0,-0.10510383,1,0,0)" xml:space="preserve"><tspan id="tspan4881" x="530.546" y="666.333" style="font-size:20px;font-style:italic;font-variant:normal;font-weight:400;font-stretch:normal;font-family:Ume P Gothic;-inkscape-font-specification:Ume P Gothic Italic">e</tspan></text></g><g id="g4885" transform="translate(-240,-86)"><path id="path4887" d="m -4325.9157,1978.7572 c 0,53.3188 -43.2235,96.5423 -96.5423,96.5423 -53.3188,0 -96.5423,-43.2235 -96.5423,-96.5423 0,-53.3188 43.2235,-96.5423 96.5423,-96.5423 53.3188,0 96.5423,43.2235 96.5423,96.5423 z" transform="matrix(0.0937797,-0.04230682,0.05113013,0.08196833,780.87217,311.29491)" style="fill:#507793;fill-opacity:1;stroke:none"/><text id="text4889" x="530.546" y="666.333" transform="matrix(1,0,-0.10510383,1,0,0)" xml:space="preserve" style="font-size:20px;font-style:normal;font-weight:400;line-height:125%;letter-spacing:0;word-spacing:0;fill:#000;fill-opacity:1;stroke:none;font-family:Sans"><tspan style="font-size:20px;font-style:italic;font-variant:normal;font-weight:400;font-stretch:normal;font-family:Ume P Gothic;-inkscape-font-specification:Ume P Gothic Italic" id="tspan4891" x="530.546" y="666.333">e</tspan></text></g><path style="fill:none;stroke:#e30000;stroke-width:67.50134277;stroke-linecap:round;stroke-linejoin:bevel;stroke-miterlimit:4;stroke-opacity:1;stroke-dasharray:none" id="path4895" d="m -4332.725,2015.2159 c -19.6695,50.7325 -75.7896,75.5362 -125.3477,55.4007 -49.5582,-20.1356 -73.7877,-77.5856 -54.1183,-128.3181 19.6695,-50.7325 75.7896,-75.5362 125.3477,-55.4007 15.0579,6.1181 28.3696,16.0168 38.7091,28.7845" transform="matrix(0.01271243,7.6011455e-4,-0.00569398,0.038504,447.07786,367.72538)"/><path id="path4903" d="m -4325.9906,1982.351 c -2.1001,50.3526 -46.9925,89.5625 -100.2699,87.5777 -53.2775,-1.9848 -94.7649,-44.4126 -92.6649,-94.7653 2.1001,-50.3526 46.9924,-89.5625 100.2699,-87.5777 17.8299,0.6642 35.1161,5.9856 49.9395,15.3734" transform="matrix(0.02117123,0.00194104,0.01533371,-0.0390866,647.10316,562.2988)" style="fill:none;stroke:#000;stroke-width:51.23081207;stroke-linecap:round;stroke-miterlimit:4;stroke-opacity:1;stroke-dasharray:none"/><path style="fill:none;stroke:#e30000;stroke-width:52.22114563;stroke-linecap:round;stroke-miterlimit:4;stroke-opacity:1;stroke-dasharray:none" id="path4905" d="m -4326.4439,1988.2888 c -5.57,50.116 -53.0722,86.4756 -106.0994,81.2115 -53.0271,-5.2642 -91.4987,-50.1587 -85.9288,-100.2747 5.57,-50.116 53.0722,-86.4756 106.0993,-81.2115 13.3823,1.3285 26.323,5.2863 37.9917,11.6193" transform="matrix(0.01743397,0.01067798,0.01875092,-0.03584072,629.56356,598.34521)"/><path id="path4907" d="m -4326.8823,1991.636 c -7.5259,49.8872 -56.4176,84.5628 -109.2026,77.45 -52.785,-7.1128 -89.4748,-53.3204 -81.9488,-103.2076 7.5259,-49.8872 56.4175,-84.5627 109.2026,-77.45 10.6852,1.4398 21.0394,4.5629 30.6317,9.2393" transform="matrix(0.01394866,0.02439617,0.03385057,-0.02104667,590.28859,638.77668)" style="fill:none;stroke:#000;stroke-width:44.83314133;stroke-linecap:round;stroke-miterlimit:4;stroke-opacity:1;stroke-dasharray:none"/><path style="fill:none;stroke:#000;stroke-width:48.74240875;stroke-linecap:round;stroke-miterlimit:4;stroke-opacity:1;stroke-dasharray:none" id="path4909" d="m -4325.9268,1977.3774 c 0.8063,50.386 -41.7586,91.8496 -95.0713,92.6117 -53.3127,0.762 -97.1849,-39.4662 -97.9912,-89.8521 -0.8062,-50.386 41.7586,-91.8496 95.0714,-92.6117 13.939,-0.1992 27.7584,2.457 40.5079,7.7859" transform="matrix(0.01790162,-0.02120432,-0.01551236,-0.03452824,574.30507,441.32736)"/><path style="fill:none;stroke:#e30000;stroke-width:55.15679169;stroke-linecap:round;stroke-linejoin:bevel;stroke-miterlimit:4;stroke-opacity:1;stroke-dasharray:none" id="path4913" d="m -4326.1493,1985.6271 c -3.7063,54.4503 -49.8298,95.5152 -103.0196,91.7211 -53.1899,-3.7942 -93.3042,-51.0106 -89.5979,-105.4609 3.7064,-54.4503 49.8298,-95.5152 103.0197,-91.7211 19.8831,1.4183 38.85,9.1016 54.2972,21.9953" transform="matrix(0.01784512,0.01332017,-0.00413367,0.03835882,571.5856,446.39118)"/><path id="path4915" d="m -4326.1593,1985.7735 c -3.7853,54.4446 -49.9683,95.4394 -103.1526,91.5644 -53.1843,-3.875 -93.2301,-51.1524 -89.4448,-105.597 3.7853,-54.4446 49.9683,-95.4394 103.1526,-91.5644 18.5178,1.3492 36.2629,8.1355 51.1092,19.5457" transform="matrix(0.020345,0.022491,-0.02060033,0.03476039,717.46892,570.92162)" style="fill:none;stroke:#e30000;stroke-width:43.84312057;stroke-linecap:round;stroke-linejoin:bevel;stroke-miterlimit:4;stroke-opacity:1;stroke-dasharray:none"/><path style="fill:none;stroke:#e30000;stroke-width:43.84312057;stroke-linecap:round;stroke-linejoin:bevel;stroke-miterlimit:4;stroke-opacity:1;stroke-dasharray:none" id="path4917" d="m -4326.7809,1991.9586 c -7.1222,54.0932 -55.7319,92.0339 -108.5729,84.743 -52.841,-7.291 -89.9035,-57.0526 -82.7813,-111.1458 7.1221,-54.0932 55.7319,-92.0339 108.5729,-84.743 17.0719,2.3556 33.2172,9.3444 46.761,20.2413" transform="matrix(0.020345,0.022491,-0.02060033,0.03476039,729.03142,572.54662)"/><path id="path4919" d="m -4332.0658,2013.4672 c -18.726,51.1053 -74.3765,76.9941 -124.2987,57.8243 -49.9223,-19.1698 -75.2118,-76.139 -56.4858,-127.2443 18.7261,-51.1053 74.3766,-76.9941 124.2988,-57.8243 17.2039,6.6062 32.209,18.1011 43.2525,33.1344" transform="matrix(0.020345,0.022491,-0.02060033,0.03476039,620.40642,644.98412)" style="fill:none;stroke:#e30000;stroke-width:43.84312057;stroke-linecap:round;stroke-linejoin:bevel;stroke-miterlimit:4;stroke-opacity:1;stroke-dasharray:none"/><path style="fill:none;stroke:#e30000;stroke-width:43.84312057;stroke-linecap:round;stroke-linejoin:bevel;stroke-miterlimit:4;stroke-opacity:1;stroke-dasharray:none" id="path4921" d="m -4333.7879,2017.8461 c -21.0885,50.1317 -77.883,73.2706 -126.8542,51.6824 -48.9711,-21.5882 -71.5745,-79.7286 -50.486,-129.8602 21.0885,-50.1317 77.883,-73.2706 126.8542,-51.6824 15.4378,6.8055 28.8725,17.6193 38.9749,31.3714" transform="matrix(-0.0041516,0.03004211,-0.03986963,0.00656278,529.19957,746.67485)"/><path id="path4923" d="m -4325.9188,1977.973 c 0.4231,54.5806 -42.456,99.1781 -95.7732,99.6111 -53.3171,0.4331 -96.8822,-43.4621 -97.3053,-98.0427 -0.423,-54.5806 42.4561,-99.178 95.7733,-99.6111 23.9909,-0.1949 47.1931,8.7617 65.0849,25.1243" transform="matrix(-0.01417264,0.02633172,0.00436502,0.04438821,310.50882,697.45887)" style="fill:none;stroke:#e30000;stroke-width:54.99132538;stroke-linecap:round;stroke-linejoin:bevel;stroke-miterlimit:4;stroke-opacity:1;stroke-dasharray:none"/><path id="path4927" d="m -4326.0261,1974.3962 c 2.5484,50.3342 -38.5597,93.0905 -91.8176,95.499 -53.2579,2.4085 -98.4979,-36.4429 -101.0463,-86.777 -2.5484,-50.3342 38.5598,-93.0905 91.8177,-95.499 10.779,-0.4875 21.5683,0.7365 31.919,3.621" transform="matrix(0.02130642,0.01016333,0.01988033,-0.03496551,647.36062,597.44438)" style="fill:none;stroke:#000;stroke-width:48.74241638;stroke-linecap:round;stroke-miterlimit:4;stroke-opacity:1;stroke-dasharray:none"/><path id="path4931" d="m -4326.7502,1966.7865 c 6.9953,49.9561 -30.1838,95.8131 -83.0417,102.4243 -52.858,6.6113 -101.3786,-28.5267 -108.3739,-78.4829 -6.9953,-49.9561 30.1837,-95.8131 83.0417,-102.4243 24.3498,-3.0456 49.0124,2.7949 68.9657,16.3322" transform="matrix(0.01534614,-0.02755369,-0.01329795,-0.04486727,366.78473,610.37549)" style="fill:none;stroke:#000;stroke-width:46.18233871;stroke-linecap:round;stroke-miterlimit:4;stroke-opacity:1;stroke-dasharray:none"/><path style="fill:none;stroke:#000;stroke-width:50.10888672;stroke-linecap:round;stroke-miterlimit:4;stroke-opacity:1;stroke-dasharray:none" id="path4933" d="m -4328.4482,1957.9959 c 12.1322,49.0699 -20.1223,98.144 -72.0425,109.6102 -51.9202,11.4661 -103.8449,-19.0177 -115.9771,-68.0876 -12.1322,-49.0698 20.1223,-98.144 72.0425,-109.6102 23.7328,-5.2412 48.6848,-1.805 69.8482,9.619" transform="matrix(-0.02494601,-0.01492055,-0.01006178,-0.04193938,81.159654,609.32301)"/><path id="path4935" d="m -4326.7502,1966.7865 c 6.9953,49.9561 -30.1838,95.8131 -83.0417,102.4243 -52.858,6.6113 -101.3786,-28.5267 -108.3739,-78.4829 -6.9953,-49.9561 30.1837,-95.8131 83.0417,-102.4243 24.3498,-3.0456 49.0124,2.7949 68.9657,16.3322" transform="matrix(-0.02494601,-0.01492055,-0.01006178,-0.04193938,84.233372,607.78613)" style="fill:none;stroke:#000;stroke-width:50.10888672;stroke-linecap:round;stroke-miterlimit:4;stroke-opacity:1;stroke-dasharray:none"/></g></g></svg>